<?xml version="1.0" encoding="utf-8"?>
<!-- Generator: Adobe Illustrator 26.0.3, SVG Export Plug-In . SVG Version: 6.00 Build 0)  -->
<svg version="1.1" id="Layer_1" xmlns="http://www.w3.org/2000/svg" xmlns:xlink="http://www.w3.org/1999/xlink" x="0px" y="0px"
	 viewBox="0 0 595.28 841.89" style="enable-background:new 0 0 595.28 841.89;" xml:space="preserve">
<style type="text/css">
	.st0{fill:#FFFFFF;stroke:#000000;stroke-width:5;stroke-miterlimit:10;}
</style>
<path class="st0" d="M286.6,156.99c0,0,62.68-78.17,94.37,8.45s-21.13,98.59-21.13,98.59s-47.18,52.82-1.41,65.49
	s80.99-9.86,112.68-19.01c31.69-9.15,140.14,26.06,74.65,51.41s-140.85,70.17-161.97,61.85s-49.3,38.15-31.69,87.45
	c17.61,49.3,126.76,164.08,61.97,152.82c-64.79-11.27-106.34,11.27-127.46-32.39s-4.93-71.83-11.27-102.82
	c-6.34-30.99-4.93-94.37-41.55-24.65s-66.2,174.65-99.3,140.14c-33.1-34.51-90.85-44.37-50-100.7s50-50.7,48.59-96.48
	c-1.41-45.77-9.86-51.41-50.7-76.06s-72.54-89.44-40.14-80.28s130.99,43.66,140.14,33.1c9.15-10.56,62.68-7.04,62.68-7.04
	s31.69-14.08,7.75-36.62c-23.94-22.54-42.25-91.55-12.68-104.23S267.58,188.68,286.6,156.99z"/>
</svg>
