<svg xmlns:rdf="http://www.w3.org/1999/02/22-rdf-syntax-ns#" xmlns="http://www.w3.org/2000/svg" xmlns:cc="http://creativecommons.org/ns#" xmlns:dc="http://purl.org/dc/elements/1.1/" xmlns:svg="http://www.w3.org/2000/svg" id="svg15214" viewBox="0 0 130.61 186.79" version="1.1">
  <g id="layer1" transform="translate(-224.25 -872.4)">
    <g id="g12157" transform="matrix(1.25 0 0 -1.25 328.3 1001.7)">
      <path id="path12159" d="m0 0c0-16.934-13.728-30.661-30.661-30.661-16.935 0-30.662 13.727-30.662 30.661s13.727 30.662 30.662 30.662c16.933 0 30.661-13.728 30.661-30.662" fill="#2aa654"/>
    </g>
    <g id="g12161" transform="matrix(1.25 0 0 -1.25 307.21 969.7)">
      <path id="path12163" d="m0 0s24.129-43.186-13.221-43.186c-36.991 0-15.471 42.267-15.471 42.267s12.659 6.826 28.692 0.919" fill="#2a7245"/>
    </g>
    <g id="g12165" transform="matrix(1.25 0 0 -1.25 205.97 1636.2)">
      <g id="g12173">
        <g id="g12175" opacity=".5" clip-path="url(#clipPath12169)">
          <g id="g12177" transform="translate(98.193 508.34)">
            <path id="path12179" d="m0 0c0-1.457-1.182-2.637-2.638-2.637s-2.637 1.18-2.637 2.637 1.181 2.637 2.637 2.637 2.638-1.18 2.638-2.637" fill="#fff"/>
          </g>
        </g>
      </g>
    </g>
    <g id="g12181" transform="matrix(1.25 0 0 -1.25 205.97 1636.2)">
      <g id="g12189">
        <g id="g12191" opacity=".5" clip-path="url(#clipPath12185)">
          <g id="g12193" transform="translate(80.558 487.82)">
            <path id="path12195" d="m0 0c0-0.923-0.749-1.671-1.672-1.671-0.924 0-1.672 0.748-1.672 1.671 0 0.924 0.748 1.672 1.672 1.672 0.923 0 1.672-0.748 1.672-1.672" fill="#fff"/>
          </g>
        </g>
      </g>
    </g>
    <g id="g12197" transform="matrix(1.25 0 0 -1.25 339.19 940.56)">
      <path id="path12199" d="m0 0c0-15.694-18.14-28.417-40.517-28.417s-40.517 12.723-40.517 28.417 18.14 28.416 40.517 28.416 40.517-12.722 40.517-28.416" fill="#2aa654"/>
    </g>
    <g id="g12201" transform="matrix(1.25 0 0 -1.25 289.84 904.28)">
      <path id="path12203" d="m0 0c0-6.002-4.865-10.867-10.867-10.867s-10.867 4.865-10.867 10.867 4.865 10.867 10.867 10.867 10.867-4.865 10.867-10.867" fill="#2aa654"/>
    </g>
    <g id="g12205" transform="matrix(1.25 0 0 -1.25 314.84 904.28)">
      <path id="path12207" d="m0 0c0-6.002-4.865-10.867-10.867-10.867s-10.867 4.865-10.867 10.867 4.865 10.867 10.867 10.867 10.867-4.865 10.867-10.867" fill="#2aa654"/>
    </g>
    <g id="g12209" transform="matrix(1.25 0 0 -1.25 279.22 891.03)">
      <path id="path12211" d="m0 0s-0.824 7.143-6.813 13.131 5.759-1.782 8.65-8.649 2.701 6.985 0 10.423c0 0 3.437-4.39 3.437-11.089 0 0 2.995 7.678 7.873 8.872 0 0-5.467-5.637-3.418-8.742 0 0 2.532 5.715 7.632 7.633 0 0-7.301-6.435-5.313-12.865 1.986-6.43-4.62-13.037-4.62-13.037s-7.428 0.749-7.428 14.323" fill="#2aa654"/>
    </g>
    <g id="g12213" transform="matrix(1.25 0 0 -1.25 286.96 904.41)">
      <path id="path12215" d="m0 0c0-4.556-3.693-8.25-8.25-8.25s-8.25 3.694-8.25 8.25 3.693 8.25 8.25 8.25 8.25-3.694 8.25-8.25" fill="#fff"/>
    </g>
    <g id="g12217" transform="matrix(1.25 0 0 -1.25 310.71 904.41)">
      <path id="path12219" d="m0 0c0-4.556-3.693-8.25-8.25-8.25s-8.25 3.694-8.25 8.25 3.693 8.25 8.25 8.25 8.25-3.694 8.25-8.25" fill="#fff"/>
    </g>
    <g id="g12221" transform="matrix(1.25 0 0 -1.25 323.84 958.32)">
      <path id="path12223" d="m0 0c0-2.831-2.966-5.125-6.625-5.125s-6.625 2.294-6.625 5.125 2.966 5.125 6.625 5.125 6.625-2.294 6.625-5.125" fill="#2a7245"/>
    </g>
    <g id="g12225" transform="matrix(1.25 0 0 -1.25 270.09 958.32)">
      <path id="path12227" d="m0 0c0-2.831-2.966-5.125-6.625-5.125s-6.625 2.294-6.625 5.125 2.966 5.125 6.625 5.125 6.625-2.294 6.625-5.125" fill="#2a7245"/>
    </g>
    <g id="g12229" transform="matrix(1.25 0 0 -1.25 205.97 1636.2)">
      <g id="g12237">
        <g id="g12239" opacity=".5" clip-path="url(#clipPath12233)">
          <g id="g12241" transform="translate(34.488 551.63)">
            <path id="path12243" d="m0 0c0-1.726-1.399-3.125-3.125-3.125-1.727 0-3.125 1.399-3.125 3.125s1.398 3.125 3.125 3.125c1.726 0 3.125-1.399 3.125-3.125" fill="#fff"/>
          </g>
        </g>
      </g>
    </g>
    <g id="g12245" transform="matrix(1.25 0 0 -1.25 205.97 1636.2)">
      <g id="g12253">
        <g id="g12255" opacity=".5" clip-path="url(#clipPath12249)">
          <g id="g12257" transform="translate(31.699 558.49)">
            <path id="path12259" d="m0 0c0-1.094-0.887-1.981-1.98-1.981-1.094 0-1.981 0.887-1.981 1.981s0.887 1.981 1.981 1.981c1.093 0 1.98-0.887 1.98-1.981" fill="#fff"/>
          </g>
        </g>
      </g>
    </g>
    <g id="g12261" transform="matrix(1.25 0 0 -1.25 205.97 1636.2)">
      <g id="g12269">
        <g id="g12271" opacity=".5" clip-path="url(#clipPath12265)">
          <g id="g12273" transform="translate(92.542 573.21)">
            <path id="path12275" d="m0 0c0-1.094-0.887-1.981-1.98-1.981-1.095 0-1.982 0.887-1.982 1.981s0.887 1.981 1.982 1.981c1.093 0 1.98-0.887 1.98-1.981" fill="#fff"/>
          </g>
        </g>
      </g>
    </g>
    <g id="g12277" transform="matrix(1.25 0 0 -1.25 205.97 1636.2)">
      <g id="g12285">
        <g id="g12287" opacity=".5" clip-path="url(#clipPath12281)">
          <g id="g12289" transform="translate(103.74 547.38)">
            <path id="path12291" d="m0 0c0-1.726-1.399-3.125-3.125-3.125-1.727 0-3.125 1.399-3.125 3.125s1.398 3.125 3.125 3.125c1.726 0 3.125-1.399 3.125-3.125" fill="#fff"/>
          </g>
        </g>
      </g>
    </g>
    <g id="g12293" transform="matrix(1.25 0 0 -1.25 285.29 908.73)">
      <path id="path12295" d="m0 0c0-1.908-1.547-3.455-3.455-3.455s-3.455 1.547-3.455 3.455 1.547 3.455 3.455 3.455 3.455-1.547 3.455-3.455" fill="#292929"/>
    </g>
    <g id="g12297" transform="matrix(1.25 0 0 -1.25 300.29 908.73)">
      <path id="path12299" d="m0 0c0-1.908-1.547-3.455-3.455-3.455s-3.455 1.547-3.455 3.455 1.547 3.455 3.455 3.455 3.455-1.547 3.455-3.455" fill="#292929"/>
    </g>
    <g id="g12301" transform="matrix(1.25 0 0 -1.25 295.71 926.29)">
      <path id="path12303" d="m0 0c0-2.899-2.519-5.25-5.625-5.25s-5.625 2.351-5.625 5.25 2.519 5.25 5.625 5.25 5.625-2.351 5.625-5.25" fill="#2a7245"/>
    </g>
    <g id="g12305" transform="matrix(1.25 0 0 -1.25 296.96 925.04)">
      <path id="path12307" d="m0 0c0-2.899-2.519-5.25-5.625-5.25s-5.625 2.351-5.625 5.25 2.519 5.25 5.625 5.25 5.625-2.351 5.625-5.25" fill="#2aa654"/>
    </g>
    <g id="g12309" transform="matrix(1.25 0 0 -1.25 295.3 910.87)">
      <path id="path12311" d="m0 0c0-0.414-0.354-0.75-0.791-0.75-0.438 0-0.791 0.336-0.791 0.75s0.353 0.75 0.791 0.75c0.437 0 0.791-0.336 0.791-0.75" fill="#fff"/>
    </g>
    <g id="g12313" transform="matrix(1.25 0 0 -1.25 293.65 909.39)">
      <path id="path12315" d="m0 0c-0.403-0.132-0.949 0.051-0.949 0.526 0 0.549 0.036 0.929 0.365 1.395 0.23 0.325 0.655 0.939 1.123 0.867 0.422-0.064 0.422-0.821 0.182-1.062-0.408-0.408-0.079-1.058-0.402-1.503-0.077-0.107-0.19-0.181-0.319-0.223" fill="#fff"/>
    </g>
    <g id="g12317" transform="matrix(1.25 0 0 -1.25 280.3 910.87)">
      <path id="path12319" d="m0 0c0-0.414-0.354-0.75-0.791-0.75-0.438 0-0.791 0.336-0.791 0.75s0.353 0.75 0.791 0.75c0.437 0 0.791-0.336 0.791-0.75" fill="#fff"/>
    </g>
    <g id="g12321" transform="matrix(1.25 0 0 -1.25 278.65 909.39)">
      <path id="path12323" d="m0 0c-0.403-0.132-0.949 0.051-0.949 0.526 0 0.549 0.036 0.929 0.365 1.395 0.23 0.325 0.655 0.939 1.123 0.867 0.422-0.064 0.422-0.821 0.182-1.062-0.408-0.408-0.079-1.058-0.402-1.503-0.077-0.107-0.19-0.181-0.319-0.223" fill="#fff"/>
    </g>
    <g id="g12325" transform="matrix(1.25 0 0 -1.25 316.01 972.71)">
      <path id="path12327" d="m0 0s13.701-2.31 23.29-11.899-6.394-6.393-6.394-6.393l-18.31 11.859s-5.315 4.723 1.414 6.433" fill="#2aa654"/>
    </g>
    <g id="g12329" transform="matrix(1.25 0 0 -1.25 343.84 999.1)">
      <path id="path12331" d="m0 0c0-1.507-1.385-2.729-3.093-2.729-1.709 0-3.094 1.222-3.094 2.729 0 1.508 1.385 2.729 3.094 2.729 1.708 0 3.093-1.221 3.093-2.729" fill="#2aa654"/>
    </g>
    <g id="g12333" transform="matrix(1.25 0 0 -1.25 350 996.96)">
      <path id="path12335" d="m0 0c0-1.507-1.385-2.729-3.094-2.729s-3.094 1.222-3.094 2.729c0 1.508 1.385 2.729 3.094 2.729s3.094-1.221 3.094-2.729" fill="#2aa654"/>
    </g>
    <g id="g12337" transform="matrix(1.25 0 0 -1.25 354.87 993.07)">
      <path id="path12339" d="m0 0c0-1.507-1.385-2.729-3.094-2.729s-3.094 1.222-3.094 2.729c0 1.508 1.385 2.729 3.094 2.729s3.094-1.221 3.094-2.729" fill="#2aa654"/>
    </g>
    <g id="g12341" transform="matrix(1.25 0 0 -1.25 263.11 972.71)">
      <path id="path12343" d="m0 0s-13.699-2.31-23.289-11.899 6.393-6.393 6.393-6.393l18.311 11.859s5.314 4.723-1.415 6.433" fill="#2aa654"/>
    </g>
    <g id="g12345" transform="matrix(1.25 0 0 -1.25 235.27 999.1)">
      <path id="path12347" d="m0 0c0-1.507 1.385-2.729 3.094-2.729 1.708 0 3.093 1.222 3.093 2.729 0 1.508-1.385 2.729-3.093 2.729-1.709 0-3.094-1.221-3.094-2.729" fill="#2aa654"/>
    </g>
    <g id="g12349" transform="matrix(1.25 0 0 -1.25 229.11 996.96)">
      <path id="path12351" d="m0 0c0-1.507 1.385-2.729 3.093-2.729s3.093 1.222 3.093 2.729c0 1.508-1.385 2.729-3.093 2.729s-3.093-1.221-3.093-2.729" fill="#2aa654"/>
    </g>
    <g id="g12353" transform="matrix(1.25 0 0 -1.25 224.25 993.07)">
      <path id="path12355" d="m0 0c0-1.507 1.385-2.729 3.093-2.729s3.093 1.222 3.093 2.729c0 1.508-1.385 2.729-3.093 2.729s-3.093-1.221-3.093-2.729" fill="#2aa654"/>
    </g>
    <g id="g12357" transform="matrix(1.25 0 0 -1.25 270.03 1031.7)">
      <path id="path12359" d="m0 0s1.311-11.961-2.764-15.803-4.313 6.177-15.338 0-8.307-6.176 16.618-6.176c11.92 0 4.154 4.52 4.953 5.273 0.798 0.753-1.807 10.359 1.609 13.582 0 0 1.039 7.175-5.078 3.124" fill="#2aa654"/>
    </g>
    <g id="g12361" transform="matrix(1.25 0 0 -1.25 309.69 1031.7)">
      <path id="path12363" d="m0 0s-1.308-11.961 2.755-15.803 4.301 6.177 15.292 0 8.282-6.176-16.568-6.176c-13.227 0-4.141 4.52-4.937 5.273s1.801 10.359-1.605 13.582-1.037 7.175 5.063 3.124" fill="#2aa654"/>
    </g>
    <g id="g12365" transform="matrix(1.25 0 0 -1.25 205.97 1636.2)">
      <g id="g12373">
        <g id="g12375" opacity=".5" clip-path="url(#clipPath12369)">
          <g id="g12377" transform="translate(36.124 527.5)">
            <path id="path12379" d="m0 0c0.707-1.575 0.004-3.424-1.57-4.131-1.575-0.708-3.424-0.005-4.131 1.569" fill="#fff"/>
          </g>
        </g>
      </g>
    </g>
    <g id="g16751" transform="matrix(1.25 0 0 -.61988 297.15 953.01)">
      <path id="path16753" d="m0 0c0-4.556-3.693-8.25-8.25-8.25s-8.25 3.694-8.25 8.25 3.693 8.25 8.25 8.25 8.25-3.694 8.25-8.25" fill="#fff"/>
    </g>
  </g>
</svg>
